<svg width="146" height="215" viewBox="0 0 146 215" fill="none" xmlns="http://www.w3.org/2000/svg">
<ellipse cx="108" cy="206.5" rx="7.5" ry="17" transform="rotate(-90 108 206.5)" fill="#FFDD59"/>
<ellipse cx="29" cy="207.5" rx="7.5" ry="17" transform="rotate(-90 29 207.5)" fill="#FFDD59"/>
<ellipse cx="70.5" cy="203" rx="11" ry="54.5" transform="rotate(-90 70.5 203)" fill="#FFDD59"/>
<ellipse cx="73" cy="100" rx="100" ry="73" transform="rotate(-90 73 100)" fill="white"/>
<ellipse cx="80.5" cy="110" rx="32.5" ry="42" fill="#FFDD59"/>
<ellipse cx="89.3353" cy="182.65" rx="7.5" ry="24.0884" transform="rotate(5 89.3353 182.65)" fill="#FFDD59"/>
<ellipse cx="86.8473" cy="158.291" rx="9.17824" ry="17" transform="rotate(-10 86.8473 158.291)" fill="#FFDD59"/>
<ellipse cx="95.284" cy="118.411" rx="10.6809" ry="15.7865" transform="rotate(10.5 95.284 118.411)" fill="#FFD32A"/>
<ellipse cx="71.5" cy="102.094" rx="6.47702" ry="12.2165" transform="rotate(-10 71.5 102.094)" fill="#FFD32A"/>
</svg>
